<?xml version="1.0" encoding="UTF-8"?>
<svg width="120px" height="91px" viewBox="0 0 120 91" version="1.1" xmlns="http://www.w3.org/2000/svg" xmlns:xlink="http://www.w3.org/1999/xlink">
    <!-- Generator: Sketch 43.1 (39012) - http://www.bohemiancoding.com/sketch -->
    <title>No Image</title>
    <desc>Created with Sketch.</desc>
    <defs></defs>
    <g id="Symbols" stroke="none" stroke-width="1" fill="none" fill-rule="evenodd">
        <g id="No-Image" fill-rule="nonzero" fill="#9398A0">
            <g id="Group-52">
                <path d="M108.933754,16.0021967 C114.818973,15.6114681 120,21.0406137 120,27 L120,80 C120,86.0715634 115.014121,91 109,91 L11,91 C4.98587857,91 0,86.0715634 0,80 L0,27 C0,21.0406137 5.18102703,15.6114681 11,16 L43.9052222,16 C45.9602846,15.6013626 46.802653,15.0563055 47.0146033,13.8297256 L50.0421737,3.71265211 C51.1615936,1.47931082 53.5216873,0 56,0 L85,0 C87.2159472,0 89.5446583,1.69009798 89.9715507,3.75840013 L92.940791,13.655868 C93.5767966,15.0993083 94.5629388,15.6394296 97.070902,16.0000131 L108.933754,16.0021967 Z M44.1854262,17.9826582 L10.9337543,17.9978033 C6.25744503,17.6873361 2,22.1486695 2,27 L2,80 C2,84.9617728 6.08529352,89 11,89 L109,89 C113.914706,89 118,84.9617728 118,80 L118,27 C118,22.1486695 113.742555,17.6873361 109,18 L97,18 C93.6519856,17.5380076 92.0525749,16.6592154 91.0809841,14.3942205 L88.0421737,4.28734789 C87.8100344,3.08994824 86.3209282,2 85,2 L56,2 C54.3125219,2 52.66585,3.01320369 51.9303835,4.37882372 L48.9743397,14.232303 C48.5598388,16.48784 47.0119725,17.4492931 44.1854262,17.9826582 Z" id="Stroke-377"></path>
                <path d="M17,16 L17,10 C17,9.10635146 18.0471275,8 19,8 L35,8 C35.9464964,8 37,9.10490944 37,10 L37,16 L17,16 Z M35,10 C35,10.1518931 34.9870857,10.1257976 34.9289675,10.0667009 C34.8720548,10.0088302 34.8546404,10 35,10 L19,10 C19.1427951,10 19.1265022,10.0082588 19.0704313,10.0654195 C19.0129508,10.1240171 19,10.1502941 19,10 L19,16 L35,16 L35,10 Z" id="Combined-Shape"></path>
                <path d="M13.2068966,29 L21.3448276,29 C21.8971123,29 22.3448276,28.5522847 22.3448276,28 C22.3448276,27.4477153 21.8971123,27 21.3448276,27 L13.2068966,27 C12.6546118,27 12.2068966,27.4477153 12.2068966,28 C12.2068966,28.5522847 12.6546118,29 13.2068966,29 Z" id="Stroke-379"></path>
                <path d="M92.366372,50.3654791 C92.366372,38.184213 82.4302855,28.3055384 70.1724138,28.3055384 C57.9145421,28.3055384 47.9784556,38.184213 47.9784556,50.3654791 C47.9784556,62.5467453 57.9145421,72.4254198 70.1724138,72.4254198 C82.4302855,72.4254198 92.366372,62.5467453 92.366372,50.3654791 Z M94.366372,50.3654791 C94.366372,63.6539175 83.5322689,74.4254198 70.1724138,74.4254198 C56.8125587,74.4254198 45.9784556,63.6539175 45.9784556,50.3654791 C45.9784556,37.0770407 56.8125587,26.3055384 70.1724138,26.3055384 C83.5322689,26.3055384 94.366372,37.0770407 94.366372,50.3654791 Z" id="Stroke-380"></path>
                <path d="M71.9181013,50.5038877 L82.7052579,39.7177253 C83.0979292,39.3250902 83.0982937,38.6881381 82.7060721,38.2950528 C82.3138506,37.9019676 81.6775692,37.9016027 81.284898,38.2942377 L70.4961775,49.0819639 L59.7071068,38.2928932 C59.3165825,37.9023689 58.6834175,37.9023689 58.2928932,38.2928932 C57.9023689,38.6834175 57.9023689,39.3165825 58.2928932,39.7071068 L69.0818987,50.4961123 L58.2947421,61.2822747 C57.9020708,61.6749098 57.9017063,62.3118619 58.2939279,62.7049472 C58.6861494,63.0980324 59.3224308,63.0983973 59.715102,62.7057623 L70.5038225,51.9180361 L81.2928932,62.7071068 C81.6834175,63.0976311 82.3165825,63.0976311 82.7071068,62.7071068 C83.0976311,62.3165825 83.0976311,61.6834175 82.7071068,61.2928932 L71.9181013,50.5038877 Z" id="Combined-Shape"></path>
                <path d="M99.5231799,50.3654791 C99.5231799,34.2536253 86.3837166,21.1900834 70.1724138,21.1900834 C53.961111,21.1900834 40.8216477,34.2536253 40.8216477,50.3654791 C40.8216477,66.477333 53.961111,79.5408748 70.1724138,79.5408748 C86.3837166,79.5408748 99.5231799,66.477333 99.5231799,50.3654791 Z M101.52318,50.3654791 C101.52318,67.5845052 87.4857,81.5408748 70.1724138,81.5408748 C52.8591276,81.5408748 38.8216477,67.5845052 38.8216477,50.3654791 C38.8216477,33.146453 52.8591276,19.1900834 70.1724138,19.1900834 C87.4857,19.1900834 101.52318,33.146453 101.52318,50.3654791 Z" id="Stroke-381"></path>
            </g>
        </g>
    </g>
</svg>
